<svg width="166" height="190" viewBox="0 0 166 190" fill="none" xmlns="http://www.w3.org/2000/svg">
  <g filter="url(#filter0_dd)">
    <path d="M35 24C35 19.5817 38.5817 16 43 16H99.701C100.214 16 100.707 16.1971 101.079 16.5506L130.378 44.4087C130.775 44.7863 131 45.3102 131 45.8581V128C131 132.418 127.418 136 123 136H43C38.5817 136 35 132.418 35 128V24Z" fill="url(#paint0_linear)"/>
    <path d="M35.5 24C35.5 19.8579 38.8579 16.5 43 16.5H99.701C100.086 16.5 100.456 16.6478 100.735 16.9129L101.079 16.5509L100.735 16.9129L130.034 44.7711C130.331 45.0542 130.5 45.4472 130.5 45.8581V128C130.5 132.142 127.142 135.5 123 135.5H43C38.8579 135.5 35.5 132.142 35.5 128V24Z" stroke="url(#paint1_linear)"/>
  </g>
  <rect x="47.9688" y="32" width="16" height="5" rx="2.5" fill="#DFE4E5"/>
  <rect x="53.9688" y="53" width="60" height="5" rx="2.5" fill="#DFE4E5"/>
  <rect x="53.9688" y="64" width="60" height="5" rx="2.5" fill="#DFE4E5"/>
  <rect x="53.9688" y="75" width="60" height="5" rx="2.5" fill="#DFE4E5"/>
  <rect x="53.9688" y="86" width="60" height="5" rx="2.5" fill="#DFE4E5"/>
  <rect x="53.9688" y="97" width="60" height="5" rx="2.5" fill="#DFE4E5"/>
  <g filter="url(#filter1_d)">
    <path d="M100.938 44V16L131.093 44.2705C131.754 44.8905 131.315 46 130.409 46H102.938C101.833 46 100.938 45.1046 100.938 44Z" fill="url(#paint2_linear)"/>
    <path d="M101.438 44V17.1541L130.751 44.6352C131.081 44.9452 130.862 45.5 130.409 45.5H102.938C102.109 45.5 101.438 44.8284 101.438 44Z" stroke="url(#paint3_linear)"/>
  </g>
  <g filter="url(#filter2_dd)">
    <circle cx="84" cy="76" r="24" fill="url(#paint4_linear)"/>
  </g>
  <circle cx="84" cy="76" r="23.3889" fill="url(#paint5_linear)" stroke="url(#paint6_linear)" stroke-width="1.22222"/>
  <g filter="url(#filter3_dd)">
    <path fill-rule="evenodd" clip-rule="evenodd" d="M96.4352 67.6464C97.367 68.6232 97.3306 70.1705 96.3537 71.1024L82.3764 84.4357C81.4245 85.3437 79.9247 85.3356 78.9828 84.4173L71.6268 77.2461C70.6601 76.3037 70.6404 74.7561 71.5828 73.7894C72.5252 72.8227 74.0728 72.803 75.0395 73.7454L80.7075 79.2711L92.9792 67.5649C93.956 66.633 95.5034 66.6695 96.4352 67.6464Z" fill="url(#paint7_linear)"/>
  </g>
  <path fill-rule="evenodd" clip-rule="evenodd" d="M94.59 69.2534L80.6901 82.5124L73.4295 75.4345L73.3935 75.4023C73.3506 75.3743 73.2911 75.3801 73.2538 75.4184C73.2109 75.4623 73.2118 75.5327 73.2558 75.5755L80.5926 82.728L80.6296 82.7611C80.6713 82.7879 80.7285 82.7833 80.766 82.7476L94.7246 69.4322L94.7581 69.3973C94.7876 69.3555 94.784 69.2959 94.7471 69.2571C94.7047 69.2127 94.6344 69.2111 94.59 69.2534ZM95.6669 70.2156C96.1204 69.7023 96.113 68.9183 95.6314 68.4135C95.1232 67.8807 94.2792 67.8608 93.7463 68.3691L80.6993 80.8145L74.2641 74.5412L74.1783 74.4644C73.6489 74.0298 72.8656 74.0657 72.3786 74.5652C71.8646 75.0925 71.8753 75.9366 72.4026 76.4507L79.7586 83.6219L79.8469 83.7008C80.3624 84.1217 81.1193 84.0997 81.6096 83.6319L95.587 70.2986L95.6669 70.2156Z" fill="url(#paint8_linear)"/>
  <defs>
    <filter id="filter0_dd" x="0" y="-4" width="166" height="190" filterUnits="userSpaceOnUse" color-interpolation-filters="sRGB">
      <feFlood flood-opacity="0" result="BackgroundImageFix"/>
      <feColorMatrix in="SourceAlpha" type="matrix" values="0 0 0 0 0 0 0 0 0 0 0 0 0 0 0 0 0 0 127 0" result="hardAlpha"/>
      <feMorphology radius="5" operator="dilate" in="SourceAlpha" result="effect1_dropShadow"/>
      <feOffset dy="15"/>
      <feGaussianBlur stdDeviation="15"/>
      <feColorMatrix type="matrix" values="0 0 0 0 0.243137 0 0 0 0 0.580392 0 0 0 0 0.894118 0 0 0 0.15 0"/>
      <feBlend mode="normal" in2="BackgroundImageFix" result="effect1_dropShadow"/>
      <feColorMatrix in="SourceAlpha" type="matrix" values="0 0 0 0 0 0 0 0 0 0 0 0 0 0 0 0 0 0 127 0" result="hardAlpha"/>
      <feMorphology radius="5" operator="erode" in="SourceAlpha" result="effect2_dropShadow"/>
      <feOffset dy="5"/>
      <feGaussianBlur stdDeviation="5"/>
      <feColorMatrix type="matrix" values="0 0 0 0 0.243137 0 0 0 0 0.580392 0 0 0 0 0.894118 0 0 0 0.2 0"/>
      <feBlend mode="normal" in2="effect1_dropShadow" result="effect2_dropShadow"/>
      <feBlend mode="normal" in="SourceGraphic" in2="effect2_dropShadow" result="shape"/>
    </filter>
    <filter id="filter1_d" x="98.9375" y="15" width="34.4731" height="34" filterUnits="userSpaceOnUse" color-interpolation-filters="sRGB">
      <feFlood flood-opacity="0" result="BackgroundImageFix"/>
      <feColorMatrix in="SourceAlpha" type="matrix" values="0 0 0 0 0 0 0 0 0 0 0 0 0 0 0 0 0 0 127 0" result="hardAlpha"/>
      <feOffset dy="1"/>
      <feGaussianBlur stdDeviation="1"/>
      <feColorMatrix type="matrix" values="0 0 0 0 0 0 0 0 0 0 0 0 0 0 0 0 0 0 0.15 0"/>
      <feBlend mode="normal" in2="BackgroundImageFix" result="effect1_dropShadow"/>
      <feBlend mode="normal" in="SourceGraphic" in2="effect1_dropShadow" result="shape"/>
    </filter>
    <filter id="filter2_dd" x="26" y="18" width="116" height="116" filterUnits="userSpaceOnUse" color-interpolation-filters="sRGB">
      <feFlood flood-opacity="0" result="BackgroundImageFix"/>
      <feColorMatrix in="SourceAlpha" type="matrix" values="0 0 0 0 0 0 0 0 0 0 0 0 0 0 0 0 0 0 127 0" result="hardAlpha"/>
      <feOffset dx="10" dy="10"/>
      <feGaussianBlur stdDeviation="12"/>
      <feColorMatrix type="matrix" values="0 0 0 0 0 0 0 0 0 0 0 0 0 0 0 0 0 0 0.32 0"/>
      <feBlend mode="normal" in2="BackgroundImageFix" result="effect1_dropShadow"/>
      <feColorMatrix in="SourceAlpha" type="matrix" values="0 0 0 0 0 0 0 0 0 0 0 0 0 0 0 0 0 0 127 0" result="hardAlpha"/>
      <feOffset dx="-10" dy="-10"/>
      <feGaussianBlur stdDeviation="12"/>
      <feColorMatrix type="matrix" values="0 0 0 0 0.873417 0 0 0 0 1 0 0 0 0 0.870833 0 0 0 1 0"/>
      <feBlend mode="normal" in2="effect1_dropShadow" result="effect2_dropShadow"/>
      <feBlend mode="normal" in="SourceGraphic" in2="effect2_dropShadow" result="shape"/>
    </filter>
    <filter id="filter3_dd" x="65.8887" y="61.8892" width="46.2222" height="38.2222" filterUnits="userSpaceOnUse" color-interpolation-filters="sRGB">
      <feFlood flood-opacity="0" result="BackgroundImageFix"/>
      <feColorMatrix in="SourceAlpha" type="matrix" values="0 0 0 0 0 0 0 0 0 0 0 0 0 0 0 0 0 0 127 0" result="hardAlpha"/>
      <feOffset dx="5" dy="5"/>
      <feGaussianBlur stdDeviation="5"/>
      <feColorMatrix type="matrix" values="0 0 0 0 0.12549 0 0 0 0 0.815686 0 0 0 0 0.458824 0 0 0 0.6 0"/>
      <feBlend mode="normal" in2="BackgroundImageFix" result="effect1_dropShadow"/>
      <feColorMatrix in="SourceAlpha" type="matrix" values="0 0 0 0 0 0 0 0 0 0 0 0 0 0 0 0 0 0 127 0" result="hardAlpha"/>
      <feOffset dx="2" dy="5"/>
      <feGaussianBlur stdDeviation="2.5"/>
      <feColorMatrix type="matrix" values="0 0 0 0 0 0 0 0 0 0 0 0 0 0 0 0 0 0 0.15 0"/>
      <feBlend mode="normal" in2="effect1_dropShadow" result="effect2_dropShadow"/>
      <feBlend mode="normal" in="SourceGraphic" in2="effect2_dropShadow" result="shape"/>
    </filter>
    <linearGradient id="paint0_linear" x1="64.9581" y1="45.717" x2="14.4796" y2="92.0346" gradientUnits="userSpaceOnUse">
      <stop stop-color="white"/>
      <stop offset="0.302691" stop-color="#F0F9FF"/>
      <stop offset="1" stop-color="white"/>
    </linearGradient>
    <linearGradient id="paint1_linear" x1="35" y1="16" x2="35" y2="136" gradientUnits="userSpaceOnUse">
      <stop stop-color="white"/>
      <stop offset="1" stop-color="#E2F1FF"/>
    </linearGradient>
    <linearGradient id="paint2_linear" x1="110.924" y1="23.4292" x2="98.5104" y2="38.6158" gradientUnits="userSpaceOnUse">
      <stop stop-color="white"/>
      <stop offset="0.302691" stop-color="#F0F9FF"/>
      <stop offset="1" stop-color="white"/>
    </linearGradient>
    <linearGradient id="paint3_linear" x1="100.938" y1="16" x2="100.938" y2="46" gradientUnits="userSpaceOnUse">
      <stop stop-color="white"/>
      <stop offset="1" stop-color="#E2F1FF"/>
    </linearGradient>
    <linearGradient id="paint4_linear" x1="60.75" y1="52.75" x2="108" y2="100" gradientUnits="userSpaceOnUse">
      <stop stop-color="#49F168"/>
      <stop offset="1" stop-color="#49F268"/>
    </linearGradient>
    <linearGradient id="paint5_linear" x1="67.5" y1="55.75" x2="100.875" y2="98.125" gradientUnits="userSpaceOnUse">
      <stop stop-color="#4BF367"/>
      <stop offset="1" stop-color="#23D473"/>
    </linearGradient>
    <linearGradient id="paint6_linear" x1="53.6323" y1="60.0553" x2="69.375" y2="106" gradientUnits="userSpaceOnUse">
      <stop stop-color="#ACFF8F"/>
      <stop offset="0.657536" stop-color="#50F192"/>
      <stop offset="1" stop-color="#80CEFF"/>
    </linearGradient>
    <linearGradient id="paint7_linear" x1="65.7994" y1="72.9858" x2="71.112" y2="88.5017" gradientUnits="userSpaceOnUse">
      <stop stop-color="white"/>
      <stop offset="1" stop-color="#96EED4"/>
    </linearGradient>
    <linearGradient id="paint8_linear" x1="73.0585" y1="74.0607" x2="74.2339" y2="88.7652" gradientUnits="userSpaceOnUse">
      <stop stop-color="white" stop-opacity="0.4"/>
      <stop offset="1" stop-color="white" stop-opacity="0.01"/>
    </linearGradient>
  </defs>
</svg>
