<svg width="158" height="190" viewBox="8 0 158 190" fill="none" xmlns="http://www.w3.org/2000/svg">
  <g filter="url(#filter0_dd)">
    <path d="M35 24C35 19.5817 38.5817 16 43 16H99.701C100.214 16 100.707 16.1971 101.079 16.5506L130.378 44.4087C130.775 44.7863 131 45.3102 131 45.8581V128C131 132.418 127.418 136 123 136H43C38.5817 136 35 132.418 35 128V24Z" fill="url(#paint0_linear)"/>
    <path d="M35.5 24C35.5 19.8579 38.8579 16.5 43 16.5H99.701C100.086 16.5 100.456 16.6478 100.735 16.9129L101.079 16.5509L100.735 16.9129L130.034 44.7711C130.331 45.0542 130.5 45.4472 130.5 45.8581V128C130.5 132.142 127.142 135.5 123 135.5H43C38.8579 135.5 35.5 132.142 35.5 128V24Z" stroke="url(#paint1_linear)"/>
  </g>
  <rect x="80" y="34" width="32" height="5" rx="2.5" fill="#DFE4E5"/>
  <rect x="86" y="60" width="37" height="5" rx="2.5" fill="#F2F5F7"/>
  <rect x="86" y="104" width="37" height="5" rx="2.5" fill="#F2F5F7"/>
  <rect x="86" y="82" width="26" height="5" rx="2.5" fill="#F2F5F7"/>
  <rect x="80" y="43" width="24" height="5" rx="2.5" fill="#DFE4E5"/>
  <rect x="86" y="69" width="20" height="5" rx="2.5" fill="#DFE4E5"/>
  <rect x="86" y="113" width="20" height="5" rx="2.5" fill="#DFE4E5"/>
  <rect x="86" y="91" width="37" height="5" rx="2.5" fill="#DFE4E5"/>
  <g filter="url(#filter1_d)">
    <path d="M100 44V16L130.155 44.2705C130.817 44.8905 130.378 46 129.471 46H102C100.895 46 100 45.1046 100 44Z" fill="url(#paint2_linear)"/>
    <path d="M100.5 44V17.1541L129.813 44.6352C130.144 44.9452 129.924 45.5 129.471 45.5H102C101.172 45.5 100.5 44.8284 100.5 44Z" stroke="url(#paint3_linear)"/>
  </g>
  <rect x="40" y="22" width="32" height="108" rx="4" fill="#DFE4E5"/>
  <path d="M80 61C80 60.4477 80.4477 60 81 60C81.5523 60 82 60.4477 82 61V107.5C82 108.052 81.5523 108.5 81 108.5C80.4477 108.5 80 108.052 80 107.5V61Z" fill="#DFE4E5"/>
  <g filter="url(#filter2_d)">
    <rect x="46" y="57" width="20" height="5" rx="2.5" fill="white" fill-opacity="0.1"/>
  </g>
  <g filter="url(#filter3_d)">
    <rect x="46" y="92" width="16" height="5" rx="2.5" fill="white" fill-opacity="0.1"/>
  </g>
  <g filter="url(#filter4_d)">
    <rect x="46" y="66" width="20" height="5" rx="2.5" fill="white" fill-opacity="0.1"/>
  </g>
  <g filter="url(#filter5_d)">
    <rect x="46" y="101" width="20" height="5" rx="2.5" fill="white" fill-opacity="0.1"/>
  </g>
  <g filter="url(#filter6_d)">
    <rect x="46" y="75" width="12" height="5" rx="2.5" fill="white" fill-opacity="0.1"/>
  </g>
  <g filter="url(#filter7_d)">
    <rect x="46" y="110" width="12" height="5" rx="2.5" fill="white" fill-opacity="0.1"/>
  </g>
  <g filter="url(#filter8_d)">
    <circle cx="56" cy="39" r="10" fill="white" fill-opacity="0.1"/>
  </g>
  <rect x="46.5" y="57.5" width="19" height="4" rx="2" stroke="url(#paint4_linear)"/>
  <rect x="46.5" y="92.5" width="15" height="4" rx="2" stroke="url(#paint5_linear)"/>
  <rect x="46.5" y="66.5" width="19" height="4" rx="2" stroke="url(#paint6_linear)"/>
  <rect x="46.5" y="101.5" width="19" height="4" rx="2" stroke="url(#paint7_linear)"/>
  <rect x="46.5" y="75.5" width="11" height="4" rx="2" stroke="url(#paint8_linear)"/>
  <rect x="46.5" y="110.5" width="11" height="4" rx="2" stroke="url(#paint9_linear)"/>
  <circle cx="56" cy="39" r="9.5" stroke="url(#paint10_linear)"/>
  <g filter="url(#filter9_dd)">
    <circle cx="84" cy="76" r="24" fill="url(#paint11_linear)"/>
  </g>
  <circle cx="84" cy="76" r="23.3889" fill="url(#paint12_linear)" stroke="url(#paint13_linear)" stroke-width="1.22222"/>
  <g filter="url(#filter10_dd)">
    <path fill-rule="evenodd" clip-rule="evenodd" d="M96.4352 67.6464C97.367 68.6232 97.3306 70.1705 96.3537 71.1024L82.3764 84.4357C81.4245 85.3437 79.9247 85.3356 78.9828 84.4173L71.6268 77.2461C70.6601 76.3037 70.6404 74.7561 71.5828 73.7894C72.5252 72.8227 74.0728 72.803 75.0395 73.7454L80.7075 79.2711L92.9792 67.5649C93.956 66.633 95.5034 66.6695 96.4352 67.6464Z" fill="url(#paint14_linear)"/>
  </g>
  <path fill-rule="evenodd" clip-rule="evenodd" d="M94.59 69.2534L80.6901 82.5124L73.4295 75.4345L73.3935 75.4023C73.3506 75.3743 73.2911 75.3801 73.2538 75.4184C73.2109 75.4623 73.2118 75.5327 73.2558 75.5755L80.5926 82.728L80.6296 82.7611C80.6713 82.7879 80.7285 82.7833 80.766 82.7476L94.7246 69.4322L94.7581 69.3973C94.7876 69.3555 94.784 69.2959 94.7471 69.2571C94.7047 69.2127 94.6344 69.2111 94.59 69.2534ZM95.6669 70.2156C96.1204 69.7023 96.113 68.9183 95.6314 68.4135C95.1232 67.8807 94.2792 67.8608 93.7463 68.3691L80.6993 80.8145L74.2641 74.5412L74.1783 74.4644C73.6489 74.0298 72.8656 74.0657 72.3786 74.5652C71.8646 75.0925 71.8753 75.9366 72.4026 76.4507L79.7586 83.6219L79.8469 83.7008C80.3624 84.1217 81.1193 84.0997 81.6096 83.6319L95.587 70.2986L95.6669 70.2156Z" fill="url(#paint15_linear)"/>
  <defs>
    <filter id="filter0_dd" x="0" y="-4" width="166" height="190" filterUnits="userSpaceOnUse" color-interpolation-filters="sRGB">
      <feFlood flood-opacity="0" result="BackgroundImageFix"/>
      <feColorMatrix in="SourceAlpha" type="matrix" values="0 0 0 0 0 0 0 0 0 0 0 0 0 0 0 0 0 0 127 0" result="hardAlpha"/>
      <feMorphology radius="5" operator="dilate" in="SourceAlpha" result="effect1_dropShadow"/>
      <feOffset dy="15"/>
      <feGaussianBlur stdDeviation="15"/>
      <feColorMatrix type="matrix" values="0 0 0 0 0.243137 0 0 0 0 0.580392 0 0 0 0 0.894118 0 0 0 0.15 0"/>
      <feBlend mode="normal" in2="BackgroundImageFix" result="effect1_dropShadow"/>
      <feColorMatrix in="SourceAlpha" type="matrix" values="0 0 0 0 0 0 0 0 0 0 0 0 0 0 0 0 0 0 127 0" result="hardAlpha"/>
      <feMorphology radius="5" operator="erode" in="SourceAlpha" result="effect2_dropShadow"/>
      <feOffset dy="5"/>
      <feGaussianBlur stdDeviation="5"/>
      <feColorMatrix type="matrix" values="0 0 0 0 0.243137 0 0 0 0 0.580392 0 0 0 0 0.894118 0 0 0 0.2 0"/>
      <feBlend mode="normal" in2="effect1_dropShadow" result="effect2_dropShadow"/>
      <feBlend mode="normal" in="SourceGraphic" in2="effect2_dropShadow" result="shape"/>
    </filter>
    <filter id="filter1_d" x="98" y="15" width="34.4731" height="34" filterUnits="userSpaceOnUse" color-interpolation-filters="sRGB">
      <feFlood flood-opacity="0" result="BackgroundImageFix"/>
      <feColorMatrix in="SourceAlpha" type="matrix" values="0 0 0 0 0 0 0 0 0 0 0 0 0 0 0 0 0 0 127 0" result="hardAlpha"/>
      <feOffset dy="1"/>
      <feGaussianBlur stdDeviation="1"/>
      <feColorMatrix type="matrix" values="0 0 0 0 0 0 0 0 0 0 0 0 0 0 0 0 0 0 0.15 0"/>
      <feBlend mode="normal" in2="BackgroundImageFix" result="effect1_dropShadow"/>
      <feBlend mode="normal" in="SourceGraphic" in2="effect1_dropShadow" result="shape"/>
    </filter>
    <filter id="filter2_d" x="44" y="57" width="28" height="13" filterUnits="userSpaceOnUse" color-interpolation-filters="sRGB">
      <feFlood flood-opacity="0" result="BackgroundImageFix"/>
      <feColorMatrix in="SourceAlpha" type="matrix" values="0 0 0 0 0 0 0 0 0 0 0 0 0 0 0 0 0 0 127 0" result="hardAlpha"/>
      <feOffset dx="2" dy="4"/>
      <feGaussianBlur stdDeviation="2"/>
      <feColorMatrix type="matrix" values="0 0 0 0 0.730469 0 0 0 0 0.77105 0 0 0 0 0.779167 0 0 0 1 0"/>
      <feBlend mode="normal" in2="BackgroundImageFix" result="effect1_dropShadow"/>
      <feBlend mode="normal" in="SourceGraphic" in2="effect1_dropShadow" result="shape"/>
    </filter>
    <filter id="filter3_d" x="44" y="92" width="24" height="13" filterUnits="userSpaceOnUse" color-interpolation-filters="sRGB">
      <feFlood flood-opacity="0" result="BackgroundImageFix"/>
      <feColorMatrix in="SourceAlpha" type="matrix" values="0 0 0 0 0 0 0 0 0 0 0 0 0 0 0 0 0 0 127 0" result="hardAlpha"/>
      <feOffset dx="2" dy="4"/>
      <feGaussianBlur stdDeviation="2"/>
      <feColorMatrix type="matrix" values="0 0 0 0 0.730469 0 0 0 0 0.77105 0 0 0 0 0.779167 0 0 0 1 0"/>
      <feBlend mode="normal" in2="BackgroundImageFix" result="effect1_dropShadow"/>
      <feBlend mode="normal" in="SourceGraphic" in2="effect1_dropShadow" result="shape"/>
    </filter>
    <filter id="filter4_d" x="44" y="66" width="28" height="13" filterUnits="userSpaceOnUse" color-interpolation-filters="sRGB">
      <feFlood flood-opacity="0" result="BackgroundImageFix"/>
      <feColorMatrix in="SourceAlpha" type="matrix" values="0 0 0 0 0 0 0 0 0 0 0 0 0 0 0 0 0 0 127 0" result="hardAlpha"/>
      <feOffset dx="2" dy="4"/>
      <feGaussianBlur stdDeviation="2"/>
      <feColorMatrix type="matrix" values="0 0 0 0 0.730469 0 0 0 0 0.77105 0 0 0 0 0.779167 0 0 0 1 0"/>
      <feBlend mode="normal" in2="BackgroundImageFix" result="effect1_dropShadow"/>
      <feBlend mode="normal" in="SourceGraphic" in2="effect1_dropShadow" result="shape"/>
    </filter>
    <filter id="filter5_d" x="44" y="101" width="28" height="13" filterUnits="userSpaceOnUse" color-interpolation-filters="sRGB">
      <feFlood flood-opacity="0" result="BackgroundImageFix"/>
      <feColorMatrix in="SourceAlpha" type="matrix" values="0 0 0 0 0 0 0 0 0 0 0 0 0 0 0 0 0 0 127 0" result="hardAlpha"/>
      <feOffset dx="2" dy="4"/>
      <feGaussianBlur stdDeviation="2"/>
      <feColorMatrix type="matrix" values="0 0 0 0 0.730469 0 0 0 0 0.77105 0 0 0 0 0.779167 0 0 0 1 0"/>
      <feBlend mode="normal" in2="BackgroundImageFix" result="effect1_dropShadow"/>
      <feBlend mode="normal" in="SourceGraphic" in2="effect1_dropShadow" result="shape"/>
    </filter>
    <filter id="filter6_d" x="44" y="75" width="20" height="13" filterUnits="userSpaceOnUse" color-interpolation-filters="sRGB">
      <feFlood flood-opacity="0" result="BackgroundImageFix"/>
      <feColorMatrix in="SourceAlpha" type="matrix" values="0 0 0 0 0 0 0 0 0 0 0 0 0 0 0 0 0 0 127 0" result="hardAlpha"/>
      <feOffset dx="2" dy="4"/>
      <feGaussianBlur stdDeviation="2"/>
      <feColorMatrix type="matrix" values="0 0 0 0 0.730469 0 0 0 0 0.77105 0 0 0 0 0.779167 0 0 0 1 0"/>
      <feBlend mode="normal" in2="BackgroundImageFix" result="effect1_dropShadow"/>
      <feBlend mode="normal" in="SourceGraphic" in2="effect1_dropShadow" result="shape"/>
    </filter>
    <filter id="filter7_d" x="44" y="110" width="20" height="13" filterUnits="userSpaceOnUse" color-interpolation-filters="sRGB">
      <feFlood flood-opacity="0" result="BackgroundImageFix"/>
      <feColorMatrix in="SourceAlpha" type="matrix" values="0 0 0 0 0 0 0 0 0 0 0 0 0 0 0 0 0 0 127 0" result="hardAlpha"/>
      <feOffset dx="2" dy="4"/>
      <feGaussianBlur stdDeviation="2"/>
      <feColorMatrix type="matrix" values="0 0 0 0 0.730469 0 0 0 0 0.77105 0 0 0 0 0.779167 0 0 0 1 0"/>
      <feBlend mode="normal" in2="BackgroundImageFix" result="effect1_dropShadow"/>
      <feBlend mode="normal" in="SourceGraphic" in2="effect1_dropShadow" result="shape"/>
    </filter>
    <filter id="filter8_d" x="44" y="29" width="28" height="28" filterUnits="userSpaceOnUse" color-interpolation-filters="sRGB">
      <feFlood flood-opacity="0" result="BackgroundImageFix"/>
      <feColorMatrix in="SourceAlpha" type="matrix" values="0 0 0 0 0 0 0 0 0 0 0 0 0 0 0 0 0 0 127 0" result="hardAlpha"/>
      <feOffset dx="2" dy="4"/>
      <feGaussianBlur stdDeviation="2"/>
      <feColorMatrix type="matrix" values="0 0 0 0 0.729412 0 0 0 0 0.772549 0 0 0 0 0.780392 0 0 0 1 0"/>
      <feBlend mode="normal" in2="BackgroundImageFix" result="effect1_dropShadow"/>
      <feBlend mode="normal" in="SourceGraphic" in2="effect1_dropShadow" result="shape"/>
    </filter>
    <filter id="filter9_dd" x="26" y="18" width="116" height="116" filterUnits="userSpaceOnUse" color-interpolation-filters="sRGB">
      <feFlood flood-opacity="0" result="BackgroundImageFix"/>
      <feColorMatrix in="SourceAlpha" type="matrix" values="0 0 0 0 0 0 0 0 0 0 0 0 0 0 0 0 0 0 127 0" result="hardAlpha"/>
      <feOffset dx="10" dy="10"/>
      <feGaussianBlur stdDeviation="12"/>
      <feColorMatrix type="matrix" values="0 0 0 0 0 0 0 0 0 0 0 0 0 0 0 0 0 0 0.32 0"/>
      <feBlend mode="normal" in2="BackgroundImageFix" result="effect1_dropShadow"/>
      <feColorMatrix in="SourceAlpha" type="matrix" values="0 0 0 0 0 0 0 0 0 0 0 0 0 0 0 0 0 0 127 0" result="hardAlpha"/>
      <feOffset dx="-10" dy="-10"/>
      <feGaussianBlur stdDeviation="12"/>
      <feColorMatrix type="matrix" values="0 0 0 0 0.873417 0 0 0 0 1 0 0 0 0 0.870833 0 0 0 1 0"/>
      <feBlend mode="normal" in2="effect1_dropShadow" result="effect2_dropShadow"/>
      <feBlend mode="normal" in="SourceGraphic" in2="effect2_dropShadow" result="shape"/>
    </filter>
    <filter id="filter10_dd" x="65.8887" y="61.8892" width="46.2222" height="38.2222" filterUnits="userSpaceOnUse" color-interpolation-filters="sRGB">
      <feFlood flood-opacity="0" result="BackgroundImageFix"/>
      <feColorMatrix in="SourceAlpha" type="matrix" values="0 0 0 0 0 0 0 0 0 0 0 0 0 0 0 0 0 0 127 0" result="hardAlpha"/>
      <feOffset dx="5" dy="5"/>
      <feGaussianBlur stdDeviation="5"/>
      <feColorMatrix type="matrix" values="0 0 0 0 0.12549 0 0 0 0 0.815686 0 0 0 0 0.458824 0 0 0 0.6 0"/>
      <feBlend mode="normal" in2="BackgroundImageFix" result="effect1_dropShadow"/>
      <feColorMatrix in="SourceAlpha" type="matrix" values="0 0 0 0 0 0 0 0 0 0 0 0 0 0 0 0 0 0 127 0" result="hardAlpha"/>
      <feOffset dx="2" dy="5"/>
      <feGaussianBlur stdDeviation="2.5"/>
      <feColorMatrix type="matrix" values="0 0 0 0 0 0 0 0 0 0 0 0 0 0 0 0 0 0 0.15 0"/>
      <feBlend mode="normal" in2="effect1_dropShadow" result="effect2_dropShadow"/>
      <feBlend mode="normal" in="SourceGraphic" in2="effect2_dropShadow" result="shape"/>
    </filter>
    <linearGradient id="paint0_linear" x1="64.9581" y1="45.717" x2="14.4796" y2="92.0346" gradientUnits="userSpaceOnUse">
      <stop stop-color="white"/>
      <stop offset="0.302691" stop-color="#F0F9FF"/>
      <stop offset="1" stop-color="white"/>
    </linearGradient>
    <linearGradient id="paint1_linear" x1="35" y1="16" x2="35" y2="136" gradientUnits="userSpaceOnUse">
      <stop stop-color="white"/>
      <stop offset="1" stop-color="#E2F1FF"/>
    </linearGradient>
    <linearGradient id="paint2_linear" x1="109.986" y1="23.4292" x2="97.5729" y2="38.6158" gradientUnits="userSpaceOnUse">
      <stop stop-color="white"/>
      <stop offset="0.302691" stop-color="#F0F9FF"/>
      <stop offset="1" stop-color="white"/>
    </linearGradient>
    <linearGradient id="paint3_linear" x1="100" y1="16" x2="100" y2="46" gradientUnits="userSpaceOnUse">
      <stop stop-color="white"/>
      <stop offset="1" stop-color="#E2F1FF"/>
    </linearGradient>
    <linearGradient id="paint4_linear" x1="62.4352" y1="57.4456" x2="46" y2="57.4456" gradientUnits="userSpaceOnUse">
      <stop stop-color="white" stop-opacity="0.01"/>
      <stop offset="1" stop-color="white" stop-opacity="0.460736"/>
    </linearGradient>
    <linearGradient id="paint5_linear" x1="59.1482" y1="92.4456" x2="46" y2="92.4456" gradientUnits="userSpaceOnUse">
      <stop stop-color="white" stop-opacity="0.01"/>
      <stop offset="1" stop-color="white" stop-opacity="0.460736"/>
    </linearGradient>
    <linearGradient id="paint6_linear" x1="62.4352" y1="66.4456" x2="46" y2="66.4456" gradientUnits="userSpaceOnUse">
      <stop stop-color="white" stop-opacity="0.01"/>
      <stop offset="1" stop-color="white" stop-opacity="0.460736"/>
    </linearGradient>
    <linearGradient id="paint7_linear" x1="62.4352" y1="101.446" x2="46" y2="101.446" gradientUnits="userSpaceOnUse">
      <stop stop-color="white" stop-opacity="0.01"/>
      <stop offset="1" stop-color="white" stop-opacity="0.460736"/>
    </linearGradient>
    <linearGradient id="paint8_linear" x1="55.8611" y1="75.4456" x2="46" y2="75.4456" gradientUnits="userSpaceOnUse">
      <stop stop-color="white" stop-opacity="0.01"/>
      <stop offset="1" stop-color="white" stop-opacity="0.460736"/>
    </linearGradient>
    <linearGradient id="paint9_linear" x1="55.8611" y1="110.446" x2="46" y2="110.446" gradientUnits="userSpaceOnUse">
      <stop stop-color="white" stop-opacity="0.01"/>
      <stop offset="1" stop-color="white" stop-opacity="0.460736"/>
    </linearGradient>
    <linearGradient id="paint10_linear" x1="62.4352" y1="30.7824" x2="46" y2="30.7824" gradientUnits="userSpaceOnUse">
      <stop stop-color="white" stop-opacity="0.01"/>
      <stop offset="1" stop-color="white" stop-opacity="0.460736"/>
    </linearGradient>
    <linearGradient id="paint11_linear" x1="60.75" y1="52.75" x2="108" y2="100" gradientUnits="userSpaceOnUse">
      <stop stop-color="#49F168"/>
      <stop offset="1" stop-color="#49F268"/>
    </linearGradient>
    <linearGradient id="paint12_linear" x1="67.5" y1="55.75" x2="100.875" y2="98.125" gradientUnits="userSpaceOnUse">
      <stop stop-color="#4BF367"/>
      <stop offset="1" stop-color="#23D473"/>
    </linearGradient>
    <linearGradient id="paint13_linear" x1="53.6323" y1="60.0553" x2="69.375" y2="106" gradientUnits="userSpaceOnUse">
      <stop stop-color="#ACFF8F"/>
      <stop offset="0.657536" stop-color="#50F192"/>
      <stop offset="1" stop-color="#80CEFF"/>
    </linearGradient>
    <linearGradient id="paint14_linear" x1="65.7994" y1="72.9858" x2="71.112" y2="88.5017" gradientUnits="userSpaceOnUse">
      <stop stop-color="white"/>
      <stop offset="1" stop-color="#96EED4"/>
    </linearGradient>
    <linearGradient id="paint15_linear" x1="73.0585" y1="74.0607" x2="74.2339" y2="88.7652" gradientUnits="userSpaceOnUse">
      <stop stop-color="white" stop-opacity="0.4"/>
      <stop offset="1" stop-color="white" stop-opacity="0.01"/>
    </linearGradient>
  </defs>
</svg>
